<svg xmlns="http://www.w3.org/2000/svg" width="512" height="512" fill="none" viewBox="0 0 512 512">
<rect x="0" y="0" width="512" height="512" fill="#f6f1e6" />
  <rect x="3.35" width="505.3" height="512" fill="#F9EED9" />
  <path d="m457.4 334.5c3.648-3.776 3.968-12.54 3.328-18.43 6.336 1.92 14.34-0.512 14.66-9.792 0.704-24.64-24.96-124.8-80.19-154.6-1.728-1.088-2.688-3.136-2.56-5.248 3.072-68.03-31.42-123.1-103.3-123.1-51.14 0-90.24 37.18-97.54 73.22-12.8 11.9-16.77 28.29-11.65 46.08-6.656-5.568-14.91-9.216-21.12-9.088-14.02 0.384-14.4 22.02-11.65 35.52-8.192-1.984-18.24-1.6-21.63 5.568-4.032 9.152 0.768 25.73 7.936 35.58-7.296 1.28-11.71 4.864-11.71 11.97 0 10.88 9.984 25.41 19.84 31.1-7.168 14.34 17.92 35.33 47.55 30.72 1.472 29.89 26.43 70.4 73.22 82.88-0.96 2.752-2.624 5.568-3.904 7.36-13.82 2.176-30.72 8.384-30.72 15.62 0 2.496 2.496 3.776 5.248 2.944 6.4-2.24 13.12-4.864 18.3-6.016-4.608 5.568-9.728 11.97-9.408 15.94 0.128 2.24 2.048 3.2 3.904 2.816 5.44-1.088 14.53-15.49 22.14-18.43 6.72 2.816 15.62 9.344 18.88 9.344 2.432 0 3.712-1.984 3.712-4.096 0-5.632-11.14-12.67-16.58-15.23 1.472-2.24 2.944-4.544 4.224-6.144 22.98 3.648 48.51 2.944 68.99-1.152 3.136 5.12 6.016 10.82 7.744 15.55-7.232 4.928-18.62 12.35-18.62 18.43 0 2.496 2.048 3.84 4.16 3.712 3.776-0.32 13.76-9.92 21.18-10.82 7.424 7.808 16.77 20.54 20.99 20.61 2.368 0.064 3.392-1.856 3.392-4.224 0-5.056-6.4-14.08-9.472-17.86 8.704 2.24 21.25 7.424 24.26 7.36 2.688-0.064 3.648-1.92 3.648-3.968 0-6.784-24.64-15.17-34.5-16.96-3.392-5.568-6.592-12.1-8.064-16.96 12.8-5.184 24.51-12.1 32.7-18.5 13.25 17.79 38.85 34.37 55.04 34.37 5.888 0 9.152-2.816 9.856-5.824 11.46 3.2 25.54 1.984 25.54-7.424 0.192-9.088-16.7-24.9-27.84-32.83z" fill="#20110B" />
  <path d="m35.07 341.9 61.18 139.2 153.1-29.76-88.58-133.1-125.7 23.62z" fill="#FCEACE" />
  <path d="m168.8 330.4-128.3 24.58" stroke="#D6B896" stroke-width="1.621" />
  <path d="m176.5 346-129 24.96" stroke="#D6B896" stroke-width="1.452" />
  <path d="m188 360.8-133.1 25.6" stroke="#D6B896" stroke-width="1.452" />
  <path d="m198.3 375.6-137.2 26.43" stroke="#D6B896" stroke-width="1.452" />
  <path d="m208.6 391.7-139.9 26.62" stroke="#D6B896" stroke-width="1.452" />
  <path d="m220.2 407.6-143.8 28.29" stroke="#D6B896" stroke-width="1.452" />
  <path d="m230.6 424.6-147.5 30.27" stroke="#D6B896" stroke-width="1.452" />
  <path d="m242 440.9-150.5 29.25" stroke="#D6B896" stroke-width="1.795" />
  <path d="m61.5 351.9 51.9 113.7" stroke="#D6B896" stroke-width="2.027" />
  <path d="m148.2 335.7 67.33 110" stroke="#D6B896" stroke-width="2.027" />
  <path d="m160.8 311.4-131.1 24.77c-2.752 0.512-3.712 3.2-2.688 5.632l63.36 143.9c0.96 2.112 3.328 3.328 5.568 2.88l159.2-31.68c3.2-0.64 3.904-3.776 2.368-6.08l-92.1-137.5c-0.96-1.536-2.752-2.24-4.608-1.92zm-64.58 169.7-61.18-139.2 125.7-23.62 88.58 133.1-153.1 29.76z" fill="#23130D" />
  <path d="m401.8 339.1c10.05 15.1 34.69 32 47.55 31.55-12.93-11.71-29.63-29.82-38.27-40.96-2.816 3.52-6.016 6.72-9.28 9.408z" fill="#FCD4B5" />
  <path d="m433.9 327.3c-4.544 4.416-14.4 1.408-20.99-2.752-0.576 1.28-1.472 3.008-1.792 4.16 8.832 13.76 26.24 31.36 38.46 41.15-0.576-3.264-0.32-6.528 0.64-8.128 8.384 3.776 21.82 5.952 24.13 4.224-3.968-11.14-30.27-28.03-40.45-38.66z" fill="#6b3e09" />
  <path d="m349.1 186c-0.96 3.328-4.032 5.824-5.12 5.696-8.512-4.48-23.49-16.77-23.36-20.8 0.064-0.896 11.9-1.216 22.14-5.248 8.576-3.456 16.77-7.808 22.53-7.744-1.216-1.472-1.664-4.096-0.32-5.056 5.696-0.768 13.25-0.384 17.98-0.384-3.072-5.056-5.696-11.26-5.568-13.63 1.216-0.576 3.968-0.384 5.568-0.192 1.92-60.29-38.02-105.3-92.48-105.3-44.03 0-82.75 32.64-88.77 66.56-11.97 12.35-15.87 24.96-12.22 39.23 1.216-0.64 2.816-0.832 3.712-0.576 0.64 6.08 1.408 12.93 2.368 17.6 2.496-1.408 5.568-2.88 7.168-2.944 2.048 2.304 3.904 5.376 4.8 7.872-1.472 1.728-3.2 3.776-4.352 5.312 1.28 1.408 2.496 2.944 3.52 4.224 7.68-6.912 20.67-10.43 26.3-6.976 2.048 1.28 2.944 3.84 2.944 7.808 0 28.8-28.99 83.52-36.54 101.6-2.88 42.11 32.77 90.75 110.6 90.75 58.3 0 89.34-32.13 95.68-47.04-28.48-27.2-57.22-87.3-56.58-130.8z" fill="#FCEACE" />
  <path d="m391.2 160.6c-5.568-1.152-11.52-1.536-14.66-1.28 0.96 1.152 1.536 2.944 0.704 3.904-8.512 0.704-18.94 1.792-24.64 3.904-2.112 4.608-2.816 10.43-2.688 17.22 0.64 16.7 13.25 48.13 26.43 71.23 12.03 24.06 36.42 59.01 49.28 62.53 1.6-6.464-7.36-28.42-10.75-37.18-0.64-6.848-1.792-14.14-2.24-18.69 7.296 9.472 19.46 17.92 28.74 19.14-2.688-10.05-4.928-20.42-5.824-25.98 7.36 9.024 17.66 17.79 24.19 21.44-8.704-50.3-34.43-95.36-68.54-116.2z" fill="#8B5022" />
  <path d="m376.3 255.6c10.56 28.35 35.84 59.65 49.28 62.53 1.6-6.464-7.36-28.42-10.75-37.18-13.7-1.792-28.93-13.63-38.53-25.34z" fill="#FCD4B5" />
  <path d="m413.3 263c2.432 19.84 27.01 61.06 37.18 63.68 2.88-9.344-6.4-34.37-9.792-45.5-9.984-2.112-20.48-10.75-27.39-18.18z" fill="#FCD4B5" />
  <path d="m435.7 255.6c2.304 19.71 20.54 48.64 28.48 49.6 1.472-5.888-1.664-20.03-4.48-28.35-8.384-5.312-17.02-13.76-24-21.25z" fill="#FCD4B5" />
  <path d="m432 208.5c-7.04-6.336-14.4-12.86-18.24-16.06 3.008 7.936 6.528 19.78 3.776 21.31-5.76 0.704-19.9-9.728-24.9-15.87 2.688 8.768 7.808 22.53 4.352 23.87-7.104 0.32-20.99-10.05-25.92-16 0.704 19.2 17.09 41.6 30.66 42.3 3.136-2.368 2.688-13.57 2.112-18.5 6.208 6.592 16.96 13.06 20.29 12.22 2.368-3.008 0.64-14.53-0.064-18.62 5.824 5.44 14.59 12.42 17.02 12.35 1.728-6.528-3.328-18.18-9.088-27.01z" fill="#FAECD3" />
  <path d="m290.4 33.41c-42.62 0-80.26 30.66-87.49 60.93 3.776-3.584 9.152-5.184 14.59-5.184 12.16 0 22.98 7.36 33.66 7.36 14.34 0 27.26-16 42.18-16 12.16 0 23.36 7.104 29.25 13.18 24.45 3.072 46.91 16.51 59.71 29.76-3.328-51.46-40.9-90.05-91.9-90.05z" fill="#6b3e09" />
  <circle transform="matrix(.9247 -.3808 .3808 .9247 -25.61 135.7)" cx="330.2" cy="132.6" r="26.4" fill="#A7341E" />
  <path d="m289.1 91.01c-10.69 0.064-18.18 8.512-18.18 18.24 0 8.832 7.424 15.68 15.81 15.68 10.43-0.192 17.98-8.384 17.98-18.18 0.064-9.6-6.656-15.62-15.62-15.74z" fill="#1E0F09" />
  <circle cx="289" cy="104.2" r="5.025" fill="#FCEACE" />
  <path d="m225.3 96.13c-6.272 1.088-24 14.4-24 18.88 0 4.096 17.47 26.75 20.86 26.82 5.76 0.192 29.18-15.42 29.18-20.22 0.064-7.808-17.34-26.3-26.05-25.47z" fill="#1E0F09" />
  <path d="m210.6 116.2c7.552 2.944 20.48 4.48 26.75 3.392-7.232-2.496-18.62-3.456-26.75-3.392z" fill="#FCEACE" />
  <path d="m225.3 172.9c-5.696 0.768-11.26 3.648-13.89 6.208 0.32 5.888 0.32 11.9-1.856 12.03-3.328-0.64-19.46-28.86-33.47-38.02 7.296 13.38 12.54 35.46 15.68 47.1-4.48-2.88-10.82-4.352-12.8-2.304-3.2 7.36 2.944 21.82 9.408 29.25-5.696-0.832-12.22-0.768-12.54 2.944-0.384 6.528 7.744 16.19 13.76 19.14-4.672 0.768-9.408 2.112-9.344 4.608 0.192 4.032 7.424 8.832 12.54 9.92 11.78-25.66 33.22-63.3 32.51-90.88z" fill="#6b3e09" />
  <path d="m180.3 253.9c-0.128-2.496 4.608-3.84 9.28-4.608-6.016-2.944-14.14-12.61-13.76-19.14 0.32-3.712 6.848-3.776 12.54-2.944-6.464-7.424-12.61-21.89-9.408-29.25 1.984-2.048 8.32-0.576 12.8 2.304-3.136-11.65-8.384-33.73-15.68-47.1-6.464-6.272-14.08-9.408-16.7-9.088-5.504 6.464-3.712 27.26 3.84 41.73 0.32 0.64-0.32 1.344-0.96 1.024-9.984-6.656-23.1-10.3-26.94-7.744-2.88 11.14 4.48 28.29 18.43 39.49 0.64 0.512 0.256 1.472-0.512 1.408-9.984-1.6-20.54-0.896-21.12 1.984-0.64 10.56 11.65 24.38 26.69 29.25 0.704 0.256 0.704 1.152 0.064 1.472-4.352 1.792-8.64 3.648-8.576 6.144 0.704 9.088 21.44 19.07 39.23 14.14 0.96-3.264 2.112-6.208 3.264-9.152-5.12-1.088-12.35-5.888-12.48-9.92z" fill="#FCEACE" />
  <path d="m178 273.2c3.84 0.448 7.808 0.512 11.46-0.256 0.96-3.264 2.112-6.208 3.264-9.152-1.792-0.512-3.52-1.216-5.248-2.112-3.136 4.224-6.336 8.32-9.472 11.52z" fill="#FAECD3" />
  <path d="m365.2 158c-5.76-0.064-13.95 4.288-22.53 7.744-10.24 4.032-22.08 4.352-22.14 5.248-0.128 4.032 14.85 16.32 23.36 20.8 1.088 0.128 4.16-2.368 5.12-5.696 0.064-7.808 1.216-14.46 3.52-18.94 5.696-2.112 16.13-3.2 24.64-3.904 0.832-0.96 0.256-2.752-0.704-3.904-3.52-0.768-7.424-1.152-11.26-1.344z" fill="#20110B" />
</svg>
